<?xml version="1.0" encoding="utf-8"?>
<svg width="678px" height="406px" viewBox="0 0 678 406" version="1.1" xmlns:xlink="http://www.w3.org/1999/xlink" xmlns="http://www.w3.org/2000/svg">
  <defs>
    <path d="M0 0L526.777 0L526.777 375.358L0 375.358L0 0Z" id="path_1" />
    <clipPath id="clip_1">
      <use xlink:href="#path_1" clip-rule="evenodd" fill-rule="evenodd" />
    </clipPath>
  </defs>
  <path d="M0 0L678 0L678 377.912L0 377.912L0 0Z" id="Rectangle" fill="#FFFFFF" fill-rule="evenodd" stroke="none" />
  <g id="eat-it" clip-path="url(#clip_1)" transform="translate(85.12558 30.64151)">
    <g transform="translate(0, 59.5)" id="e-at---i-t" fill="#1CE783">
      <path d="M98.09 128.35Q98.09 132.77 97.58 137.7L23.12 137.7Q23.97 151.47 32.555 159.205Q41.14 166.94 53.38 166.94Q63.41 166.94 70.125 162.265Q76.84 157.59 79.56 149.77L96.22 149.77Q92.48 163.2 81.26 171.615Q70.04 180.03 53.38 180.03Q40.12 180.03 29.665 174.08Q19.21 168.13 13.26 157.165Q7.31 146.2 7.31 131.75Q7.31 117.3 13.09 106.42Q18.87 95.54 29.325 89.675Q39.78 83.81 53.38 83.81Q66.64 83.81 76.84 89.59Q87.04 95.37 92.565 105.485Q98.09 115.6 98.09 128.35ZM82.11 125.12Q82.11 116.28 78.2 109.905Q74.29 103.53 67.575 100.215Q60.86 96.9 52.7 96.9Q40.97 96.9 32.725 104.38Q24.48 111.86 23.29 125.12L82.11 125.12Z" />
    </g>
    <g transform="translate(105.4, 59.5)" id="e-at---i-t">
      <path d="M7.31 131.58Q7.31 117.3 13.09 106.505Q18.87 95.71 28.985 89.76Q39.1 83.81 51.51 83.81Q63.75 83.81 72.76 89.08Q81.77 94.35 86.19 102.34L86.19 85.34L101.83 85.34L101.83 178.5L86.19 178.5L86.19 161.16Q81.6 169.32 72.505 174.675Q63.41 180.03 51.34 180.03Q38.93 180.03 28.9 173.91Q18.87 167.79 13.09 156.74Q7.31 145.69 7.31 131.58ZM86.19 131.75Q86.19 121.21 81.94 113.39Q77.69 105.57 70.465 101.405Q63.24 97.24 54.57 97.24Q45.9 97.24 38.76 101.32Q31.62 105.4 27.37 113.22Q23.12 121.04 23.12 131.58Q23.12 142.29 27.37 150.195Q31.62 158.1 38.76 162.265Q45.9 166.43 54.57 166.43Q63.24 166.43 70.465 162.265Q77.69 158.1 81.94 150.195Q86.19 142.29 86.19 131.75ZM146.88 98.09L146.88 153Q146.88 159.8 149.77 162.605Q152.66 165.41 159.8 165.41L171.19 165.41L171.19 178.5L157.25 178.5Q144.33 178.5 137.87 172.55Q131.41 166.6 131.41 153L131.41 98.09L119.34 98.09L119.34 85.34L131.41 85.34L131.41 61.88L146.88 61.88L146.88 85.34L171.19 85.34L171.19 98.09L146.88 98.09Z" />
    </g>
    <g transform="translate(282.2, 59.5)" id="e-at---i-t" fill="#FFFFFF">
      <path d="" />
    </g>
    <g transform="translate(327.59003, 59.5)" id="e-at---i-t" fill="#1CE783">
      <path d="M21.08 70.21Q16.66 70.21 13.6 67.15Q10.54 64.09 10.54 59.67Q10.54 55.25 13.6 52.19Q16.66 49.13 21.08 49.13Q25.33 49.13 28.305 52.19Q31.28 55.25 31.28 59.67Q31.28 64.09 28.305 67.15Q25.33 70.21 21.08 70.21ZM28.56 85.34L28.56 178.5L13.09 178.5L13.09 85.34L28.56 85.34Z" />
    </g>
    <g transform="translate(369.41003, 59.5)" id="e-at---i-t">
      <path d="M31.96 98.09L31.96 153Q31.96 159.8 34.85 162.605Q37.74 165.41 44.88 165.41L56.27 165.41L56.27 178.5L42.33 178.5Q29.41 178.5 22.95 172.55Q16.49 166.6 16.49 153L16.49 98.09L4.42 98.09L4.42 85.34L16.49 85.34L16.49 61.88L31.96 61.88L31.96 85.34L56.27 85.34L56.27 98.09L31.96 98.09Z" />
    </g>
  </g>
</svg>
